# xmcd CD database file
#
# Track frame offsets:
#	150
#	15942
#	32237
#	42930
#	59365
#
# Disc length: 1052 seconds
#
# Revision: 1
# Processed by: cddbd v1.5.2PL0 Copyright (c) Steve Scherf et al.
# Submitted via: CDex 1.70beta2
#
DISCID=35041a05
DTITLE=Various Artist - niagara SPRING
DYEAR=2006
DGENRE=Pop
TTITLE0=Cider'73 - featuring Chocolat and Akiko
TTITLE1=Pap-Pi-Doo-Bi-Doo-Ba物語 - □□□（クチロロ）
TTITLE2=恋はメレンゲ - The Miceteeth
TTITLE3=論寒牛男 - Honesty
TTITLE4=雨のウェンズデイ - 永山マキ
EXTD=YEAR: 2006
EXTT0=
EXTT1=
EXTT2=
EXTT3=
EXTT4=
PLAYORDER=
